<svg width="392" height="141" viewBox="0 0 392 141" fill="none" xmlns="http://www.w3.org/2000/svg">
<path d="M40.73 112.19L4.65 102.4L8.72 86.56L11.47 87.33V55.1H24.56L9.16 50.92L13.56 34.86L55.36 46.3V99.54H44.03L40.73 112.19ZM28.08 90.19H21.92L38.75 94.81V58.95L28.08 56.09V90.19ZM93.8832 112.96L58.9032 103.39L60.7732 96.35V55.98H70.1232L58.6832 54.88L60.2232 38.38L104.553 42.56L103.013 59.17L77.3832 56.64V67.31H92.1232L90.0332 83.92H77.3832V91.18L98.2832 96.9L93.8832 112.96ZM127.242 108.89L107.882 103.61L111.292 90.85V54H120.422L108.982 50.92L113.382 34.86L156.282 46.63L152.652 59.83V91.84L156.282 92.83L151.992 108.89L132.632 103.61L136.042 90.85V73.14L133.842 81.28L127.902 79.63V91.84L131.532 92.83L127.242 108.89ZM127.902 67.31L136.042 69.51V58.29L127.902 56.09V67.31ZM195.632 112.19L159.552 102.4L163.622 86.56L166.372 87.33V55.1H179.462L164.062 50.92L168.462 34.86L210.262 46.3V99.54H198.932L195.632 112.19ZM182.982 90.19H176.822L193.652 94.81V58.95L182.982 56.09V90.19ZM255.826 110.21L214.246 106.25L215.676 90.85V51.8L219.966 35.74L240.866 41.35L236.576 57.41L232.286 56.31V89.42L223.376 90.41L257.366 93.6L255.826 110.21ZM279.996 109L260.636 103.72L264.046 90.96V51.8L260.636 50.92L264.926 34.86L284.286 40.14L280.656 53.78V91.95L284.286 92.94L279.996 109ZM309.159 108.89L289.799 103.61L293.209 90.85V57.3L287.599 55.76L291.889 39.7L309.819 44.65V44.76V51.25L313.009 39.7L338.199 46.63L334.569 59.83V91.84L338.199 92.83L333.909 108.89L316.639 104.16L317.959 99.43V58.29L309.819 56.09V91.84L313.449 92.83L309.159 108.89ZM376.725 112.96L341.745 103.39L343.615 96.35V55.98H352.965L341.525 54.88L343.065 38.38L387.395 42.56L385.855 59.17L360.225 56.64V67.31H374.965L372.875 83.92H360.225V91.18L381.125 96.9L376.725 112.96Z" fill="#6BEB87" fill-opacity="0.42"/>
<path d="M37.73 105.19L1.65 95.4L5.72 79.56L8.47 80.33V48.1H21.56L6.16 43.92L10.56 27.86L52.36 39.3V92.54H41.03L37.73 105.19ZM25.08 83.19H18.92L35.75 87.81V51.95L25.08 49.09V83.19ZM90.8832 105.96L55.9032 96.39L57.7732 89.35V48.98H67.1232L55.6832 47.88L57.2232 31.38L101.553 35.56L100.013 52.17L74.3832 49.64V60.31H89.1232L87.0332 76.92H74.3832V84.18L95.2832 89.9L90.8832 105.96ZM124.242 101.89L104.882 96.61L108.292 83.85V47H117.422L105.982 43.92L110.382 27.86L153.282 39.63L149.652 52.83V84.84L153.282 85.83L148.992 101.89L129.632 96.61L133.042 83.85V66.14L130.842 74.28L124.902 72.63V84.84L128.532 85.83L124.242 101.89ZM124.902 60.31L133.042 62.51V51.29L124.902 49.09V60.31ZM192.632 105.19L156.552 95.4L160.622 79.56L163.372 80.33V48.1H176.462L161.062 43.92L165.462 27.86L207.262 39.3V92.54H195.932L192.632 105.19ZM179.982 83.19H173.822L190.652 87.81V51.95L179.982 49.09V83.19ZM252.826 103.21L211.246 99.25L212.676 83.85V44.8L216.966 28.74L237.866 34.35L233.576 50.41L229.286 49.31V82.42L220.376 83.41L254.366 86.6L252.826 103.21ZM276.996 102L257.636 96.72L261.046 83.96V44.8L257.636 43.92L261.926 27.86L281.286 33.14L277.656 46.78V84.95L281.286 85.94L276.996 102ZM306.159 101.89L286.799 96.61L290.209 83.85V50.3L284.599 48.76L288.889 32.7L306.819 37.65V37.76V44.25L310.009 32.7L335.199 39.63L331.569 52.83V84.84L335.199 85.83L330.909 101.89L313.639 97.16L314.959 92.43V51.29L306.819 49.09V84.84L310.449 85.83L306.159 101.89ZM373.725 105.96L338.745 96.39L340.615 89.35V48.98H349.965L338.525 47.88L340.065 31.38L384.395 35.56L382.855 52.17L357.225 49.64V60.31H371.965L369.875 76.92H357.225V84.18L378.125 89.9L373.725 105.96Z" fill="black"/>
<path d="M138.168 139L129.72 136.696L131.208 131.128V123.16L129.72 122.776L131.592 115.768L138.648 117.688L139.176 115.768L144.936 117.352L143.064 124.36L138.456 123.112V131.56L140.04 131.992L138.168 139ZM160.046 140.344L146.126 136.552L146.942 133.48V120.184H151.118L150.254 119.464L154.91 113.896L163.838 121.48L159.182 127L159.95 129.784L154.43 131.32L161.918 133.336L160.046 140.344ZM154.19 122.824V125.992L157.022 125.224L154.19 122.824ZM175.81 139.528L165.298 136.648L165.826 134.68V122.104H170.29L166.498 121.096L168.274 114.088L182.53 117.832L180.706 124.888L173.074 122.872V131.272L174.85 131.752L179.122 129.304L182.77 135.544L175.858 139.528H175.81ZM184.141 136.648L184.669 134.68V120.184H186.877L188.605 113.704L203.053 117.688L201.949 121.768V134.872H196.813L195.517 139.72L184.141 136.648ZM191.917 131.224L194.701 131.992V122.92L191.917 122.152V131.224ZM212.934 139L204.486 136.696L205.974 131.128V123.16L204.486 122.776L206.358 115.768L213.414 117.688L213.942 115.768L219.702 117.352L217.83 124.36L213.222 123.112V131.56L214.806 131.992L212.934 139ZM232.268 139.672L220.892 136.6L221.372 134.776V120.184H227.9L223.676 109.72L230.396 106.984L239.132 128.536V134.872H233.516L232.268 139.672ZM228.62 131.176L231.884 132.04V129.976L228.62 121.912V131.176ZM248.307 139.096L240.819 137.08L244.275 130.504L252.915 132.856L248.931 127.192L245.139 129.832L240.099 122.584L245.667 117.88L251.091 113.32L258.483 115.288L254.979 121.864L246.915 119.656L250.467 124.744L254.211 122.104L257.331 126.568L256.851 131.848L254.979 133.432L248.307 139.096Z" fill="black"/>
</svg>
